
<svg version="1.0" xmlns="http://www.w3.org/2000/svg"
 width="1104.000000pt" height="883.000000pt" viewBox="0 0 1104.000000 883.000000"
 preserveAspectRatio="xMidYMid meet">
<g transform="translate(0.000000,883.000000) scale(0.100000,-0.100000)"
fill="#000000" stroke="none">
<path d="M5425 8631 c-92 -24 -173 -90 -215 -176 -20 -41 -25 -65 -25 -135 0
-100 24 -160 90 -225 65 -65 125 -89 225 -89 79 -1 89 2 150 35 224 123 226
434 3 556 -49 27 -76 35 -130 38 -37 2 -81 1 -98 -4z"/>
<path d="M4940 7718 c-129 -290 -476 -1115 -471 -1119 3 -4 236 -79 516 -168
l510 -160 510 168 c379 124 509 171 507 182 -5 22 -463 1103 -471 1111 -4 5
-128 -5 -276 -21 l-270 -28 -265 28 c-146 15 -268 28 -273 29 -4 0 -12 -10
-17 -22z m410 -323 c136 -14 156 -14 320 4 148 17 176 18 185 6 5 -8 66 -148
135 -312 80 -188 122 -300 116 -304 -6 -4 -147 -51 -313 -104 l-302 -98 -308
97 c-169 54 -310 99 -312 102 -3 3 236 570 261 617 7 13 17 16 41 12 18 -2 97
-12 177 -20z"/>
<path d="M3810 5730 c0 -518 3 -651 13 -647 43 16 1649 487 1662 487 14 0
1648 -471 1693 -487 9 -4 12 129 12 647 0 599 -1 652 -16 646 -9 -4 -386 -122
-838 -262 l-821 -256 -837 256 c-460 141 -844 259 -852 262 -14 6 -16 -56 -16
-646z m713 118 c281 -86 394 -125 381 -130 -11 -4 -188 -58 -394 -118 -206
-61 -381 -113 -387 -115 -10 -3 -13 49 -13 240 0 135 3 245 7 245 4 0 186 -55
406 -122z m2367 -124 c0 -193 -3 -245 -12 -241 -7 2 -189 55 -405 118 -216 62
-391 115 -388 117 4 5 785 250 798 251 4 1 7 -110 7 -245z"/>
<path d="M10170 4046 c-277 -59 -476 -242 -562 -516 -20 -66 -23 -95 -23 -240
0 -128 4 -179 18 -229 73 -257 262 -436 517 -487 166 -33 394 -4 560 72 l80
37 0 328 0 329 -245 0 -245 0 0 -75 0 -75 165 0 165 0 0 -205 0 -206 -45 -19
c-160 -69 -384 -64 -533 12 -73 36 -162 126 -205 205 -63 118 -88 350 -52 501
51 216 227 386 440 423 139 24 337 -6 466 -71 l59 -30 0 90 0 90 -37 16 c-130
55 -384 79 -523 50z"/>
<path d="M444 3310 l-281 -731 91 3 90 3 58 160 c32 88 65 179 74 203 l16 42
312 0 313 0 78 -205 79 -205 88 0 c48 0 88 2 88 4 0 2 -113 296 -251 652 -138
357 -264 684 -281 727 l-29 77 -82 0 -82 0 -281 -730z m500 145 l114 -310
-250 -3 c-138 -1 -252 -1 -254 1 -2 2 51 151 116 333 66 181 123 345 127 364
l6 35 13 -55 c7 -30 65 -194 128 -365z"/>
<path d="M1440 4033 c0 -5 96 -332 213 -728 l213 -720 95 -3 94 -3 162 573
c90 315 164 587 166 603 3 28 3 28 11 -10 6 -34 75 -281 285 -1030 l37 -130
97 -3 c53 -1 97 -1 97 2 0 4 387 1375 406 1439 5 15 -4 17 -83 17 l-88 0 -163
-607 c-90 -335 -163 -617 -163 -628 0 -31 -15 1 -24 49 -6 37 -292 1079 -316
1154 l-11 33 -75 -3 -76 -3 -23 -80 c-56 -191 -324 -1133 -330 -1160 -7 -28
-8 -27 -14 20 -4 28 -81 314 -171 638 l-164 587 -87 0 c-49 0 -88 -3 -88 -7z"/>
<path d="M3574 3310 l-281 -731 91 3 90 3 58 160 c32 88 65 179 74 203 l16 42
312 0 313 0 78 -205 79 -205 88 0 c48 0 88 2 88 4 0 2 -113 296 -251 652 -138
357 -264 684 -281 727 l-29 77 -82 0 -82 0 -281 -730z m500 145 l114 -310
-250 -3 c-138 -1 -252 -1 -254 1 -2 2 51 151 116 333 66 181 123 345 127 364
l6 35 13 -55 c7 -30 65 -194 128 -365z"/>
<path d="M4800 3310 l0 -730 80 0 80 0 0 355 c0 195 3 355 8 354 4 0 143 -160
310 -355 l302 -354 111 0 c86 0 108 3 102 13 -6 10 -353 400 -591 664 l-74 82
317 351 316 350 -100 0 -100 0 -291 -335 c-160 -184 -295 -337 -300 -340 -6
-4 -10 120 -10 334 l0 341 -80 0 -80 0 0 -730z"/>
<path d="M6000 3310 l0 -730 80 0 80 0 0 632 0 633 44 -75 c25 -41 206 -325
403 -630 l358 -555 103 -3 102 -3 0 731 0 730 -80 0 -81 0 3 -630 c2 -347 2
-630 1 -630 -1 0 -16 24 -33 53 -18 28 -197 312 -398 630 l-365 577 -109 0
-108 0 0 -730z"/>
<path d="M7560 3310 l0 -730 80 0 80 0 0 730 0 730 -80 0 -80 0 0 -730z"/>
<path d="M8110 3310 l0 -730 80 0 80 0 0 632 0 633 44 -75 c25 -41 206 -325
403 -630 l358 -555 103 -3 102 -3 0 731 0 730 -80 0 -81 0 3 -630 c2 -347 2
-630 1 -630 -1 0 -16 24 -33 53 -18 28 -197 312 -398 630 l-365 577 -109 0
-108 0 0 -730z"/>
<path d="M7221 1971 c-44 -46 -51 -50 -131 -65 -353 -70 -580 -242 -580 -440
0 -77 24 -120 83 -146 49 -23 75 -24 128 -8 103 30 187 166 149 239 -6 10 -17
19 -26 19 -12 0 -13 -4 -3 -21 26 -49 -14 -151 -74 -188 -109 -66 -185 -16
-174 115 9 120 103 230 260 308 89 44 206 86 275 99 l33 7 -26 -43 c-25 -40
-99 -188 -272 -547 -99 -206 -184 -332 -302 -450 -74 -74 -114 -105 -176 -137
-144 -74 -230 -87 -369 -58 -234 50 -311 245 -169 431 13 18 43 44 66 60 46
30 37 45 -13 19 -96 -50 -162 -166 -164 -285 -1 -123 64 -203 204 -252 93 -33
273 -33 380 1 199 62 370 188 475 350 74 115 168 320 235 516 34 99 86 231
115 293 46 95 57 112 77 112 35 1 105 36 118 60 19 35 4 60 -38 60 -30 0 -43
-8 -81 -49z m79 -4 c0 -14 -40 -37 -62 -37 -6 0 -1 11 12 25 26 27 50 33 50
12z"/>
<path d="M2800 1993 c-8 -3 -26 -14 -40 -23 -21 -15 -34 -17 -70 -10 -142 28
-377 20 -517 -16 -236 -61 -385 -246 -316 -391 34 -72 143 -114 230 -88 67 20
133 91 133 144 0 28 -17 27 -25 -1 -11 -36 -53 -87 -85 -103 -16 -8 -50 -15
-75 -15 -169 0 -190 160 -40 299 110 101 271 146 527 146 91 0 169 -3 173 -7
4 -4 -21 -40 -55 -80 -82 -97 -135 -179 -218 -334 -107 -198 -159 -286 -200
-333 l-37 -43 -90 45 c-155 79 -240 84 -307 17 -41 -41 -46 -62 -24 -115 18
-42 70 -70 147 -80 74 -9 158 9 238 51 61 32 65 33 99 18 53 -22 177 -51 267
-64 243 -32 480 104 478 275 0 88 -35 132 -153 194 l-72 38 51 6 c150 18 265
138 231 241 -20 62 -106 125 -225 166 l-49 17 27 17 c38 26 37 44 -3 29z m35
-103 c106 -36 154 -93 141 -164 -9 -46 -84 -128 -143 -156 -42 -20 -59 -22
-140 -18 -65 4 -98 1 -110 -7 -15 -11 -15 -13 4 -24 12 -6 63 -25 114 -42 151
-50 199 -94 199 -182 0 -27 -7 -64 -16 -82 -22 -46 -104 -122 -162 -148 -88
-41 -301 -26 -445 30 l-37 15 38 42 c63 69 125 161 293 442 165 275 190 313
200 314 3 0 32 -9 64 -20z m-771 -733 l91 -44 -35 -22 c-92 -57 -220 -66 -268
-18 -35 36 -34 82 3 115 39 33 89 25 209 -31z"/>
<path d="M4002 1798 c-5 -7 -44 -83 -86 -169 l-76 -156 -69 5 c-62 4 -74 2
-120 -24 -59 -31 -94 -75 -171 -212 -53 -95 -109 -162 -135 -162 -26 0 -37 36
-24 83 17 65 107 249 136 279 l27 28 -40 0 c-22 0 -47 -6 -56 -12 -8 -7 -41
-62 -73 -123 -94 -179 -151 -255 -192 -255 -26 0 -39 34 -28 72 16 51 126 266
145 283 11 10 20 22 20 27 0 13 -74 9 -92 -4 -19 -16 -113 -197 -105 -204 3
-3 -3 -24 -14 -47 -36 -80 -21 -142 35 -152 46 -9 87 14 136 76 l40 51 0 -46
c0 -111 101 -113 180 -5 25 35 30 38 30 20 0 -30 25 -77 45 -85 57 -22 108 3
161 78 l21 29 6 -40 c15 -89 90 -102 161 -28 44 45 44 45 50 20 17 -68 99 -88
153 -37 16 15 38 40 49 56 l21 29 6 -40 c12 -74 75 -97 138 -52 31 22 31 22
20 1 -16 -30 -15 -32 23 -32 31 0 36 5 80 80 48 82 163 215 197 225 38 12 37
-7 -8 -93 -71 -138 -61 -212 30 -212 33 0 46 7 83 43 41 42 43 42 49 20 15
-63 77 -80 139 -38 l36 24 24 -24 c21 -21 57 -31 89 -26 4 1 36 3 70 4 72 3
106 22 148 81 28 38 29 38 29 12 0 -34 24 -82 45 -90 54 -20 117 9 163 76 28
41 82 141 82 153 0 19 -19 -3 -43 -49 -53 -101 -122 -165 -162 -150 -24 10
-27 44 -10 119 14 58 25 79 69 130 29 33 65 79 81 103 25 37 32 42 66 42 28 0
39 4 39 15 0 10 -10 15 -30 15 l-29 0 36 75 c41 87 52 151 30 179 -35 48 -109
-16 -183 -158 -48 -93 -50 -95 -87 -98 -47 -4 -53 -22 -9 -26 27 -3 32 -7 27
-20 -4 -9 -22 -63 -42 -119 -59 -171 -133 -273 -196 -273 -20 0 -19 2 5 28 34
36 58 85 58 117 0 15 -13 60 -30 102 -37 93 -39 135 -5 169 18 18 31 23 50 18
27 -7 35 10 9 20 -64 25 -100 -9 -180 -170 -37 -74 -75 -139 -85 -145 -10 -5
-23 -27 -29 -49 -12 -46 -53 -82 -89 -78 -43 5 -38 43 30 202 34 79 59 152 56
160 -4 11 -19 16 -47 16 -37 0 -40 -2 -35 -23 12 -46 -110 -293 -169 -343 -39
-34 -51 -26 -51 33 1 40 12 73 65 179 36 71 66 132 68 137 8 17 -35 4 -101
-30 -39 -21 -100 -65 -135 -98 l-64 -60 57 115 c70 140 178 333 212 378 l24
32 -45 0 c-57 0 -52 7 -208 -295 -171 -331 -214 -395 -265 -395 -39 0 -34 55
13 165 37 85 191 378 255 484 22 34 39 65 39 68 0 2 -21 3 -47 1 l-48 -3 -83
-166 -82 -166 -69 5 c-62 4 -74 2 -120 -24 -60 -32 -102 -85 -157 -197 -47
-96 -106 -167 -140 -167 -40 0 -36 54 12 165 37 85 191 378 255 484 22 34 39
65 39 67 0 10 -89 3 -98 -8z m1605 -107 c-2 -21 -20 -70 -38 -107 -31 -62 -37
-69 -67 -72 l-33 -3 47 93 c47 95 70 128 87 128 5 0 7 -17 4 -39z m-114 -242
c-19 -32 -93 -125 -93 -116 0 2 7 21 15 41 8 20 22 52 29 71 12 27 21 35 41
35 l26 0 -18 -31z m-1684 2 c11 -7 7 -22 -24 -77 -99 -178 -181 -284 -221
-284 -8 0 -20 11 -26 25 -22 50 28 160 116 254 76 80 120 104 155 82z m440 0
c11 -7 7 -22 -24 -77 -99 -178 -181 -284 -221 -284 -8 0 -20 11 -26 25 -22 50
28 160 116 254 76 80 120 104 155 82z m870 -214 c1 -89 -19 -147 -50 -147 -21
0 -49 47 -49 83 0 12 -5 28 -11 34 -7 7 5 40 42 114 l53 104 7 -55 c4 -30 7
-90 8 -133z m-101 -127 c18 -37 18 -40 2 -40 -26 0 -43 26 -36 55 4 14 8 25
10 25 2 0 13 -18 24 -40z"/>
<path d="M8484 1791 c-56 -34 -167 -240 -230 -429 -56 -166 -133 -274 -207
-287 -53 -10 -77 13 -77 74 0 65 9 91 31 91 40 0 126 42 161 77 58 60 71 110
38 143 -81 81 -280 -97 -297 -266 -10 -94 30 -146 110 -146 70 0 111 25 164
97 l22 30 1 -38 c0 -51 35 -87 85 -87 92 0 160 80 235 275 25 63 30 70 57 73
18 2 39 -4 53 -16 l23 -19 -48 -88 c-56 -102 -65 -166 -31 -204 35 -38 74 -28
133 35 l53 56 0 -34 c0 -39 7 -51 37 -67 59 -30 119 6 192 115 28 41 51 74 51
72 0 -10 -49 -147 -69 -195 l-23 -51 -91 -23 c-203 -49 -304 -107 -328 -189
-24 -79 15 -120 114 -120 111 0 220 82 322 244 44 68 52 76 111 101 46 20 78
42 112 80 54 59 121 179 108 192 -5 4 -11 3 -13 -4 -2 -6 -25 -47 -51 -90 -36
-60 -60 -86 -102 -115 -105 -70 -105 -69 -49 94 59 169 92 245 121 275 l21 23
-35 0 c-56 0 -67 -8 -98 -71 -94 -184 -193 -319 -235 -319 -28 0 -39 26 -29
67 11 46 124 266 152 296 l26 27 -45 0 c-25 0 -52 -6 -61 -12 -8 -7 -41 -62
-73 -123 -106 -203 -171 -283 -196 -245 -14 23 -2 66 57 190 30 64 54 125 54
136 0 20 -4 20 -82 16 l-83 -5 33 37 c49 56 40 135 -15 124 -13 -2 -24 -28
-44 -100 -45 -169 -128 -340 -190 -392 -34 -29 -42 -31 -69 -16 -50 27 -26
164 40 236 112 122 240 350 240 428 0 66 -28 82 -86 47z m7 -195 c-45 -89
-168 -272 -178 -263 -11 12 154 350 194 397 l28 34 3 -33 c3 -24 -10 -61 -47
-135z m-311 -181 c0 -28 -9 -45 -41 -80 -38 -41 -122 -86 -135 -72 -10 10 41
88 90 140 57 58 86 62 86 12z m726 -483 c-22 -42 -141 -167 -191 -200 -58 -39
-109 -48 -141 -27 -13 8 -24 25 -24 36 0 45 54 111 117 143 27 13 223 74 246
75 4 1 1 -12 -7 -27z"/>
<path d="M4923 1599 c-54 -20 -49 -89 7 -89 38 0 67 39 51 68 -13 25 -31 31
-58 21z"/>
<path d="M7822 1468 c-31 -34 -48 -108 -35 -153 10 -32 8 -42 -23 -104 -66
-133 -174 -188 -174 -90 0 63 112 313 146 326 8 3 14 9 14 14 0 10 -60 12 -84
3 -9 -4 -48 -69 -87 -145 -82 -162 -138 -239 -174 -239 -28 0 -39 25 -29 67
11 46 122 268 144 288 11 10 20 22 20 27 0 13 -74 9 -92 -4 -8 -7 -48 -75 -88
-152 -83 -158 -135 -220 -193 -231 -53 -10 -77 13 -77 74 0 65 9 91 31 91 40
0 126 42 161 77 58 60 71 110 38 143 -81 81 -280 -97 -297 -266 -10 -92 29
-145 106 -146 68 -1 112 23 158 84 l23 32 0 -36 c0 -41 36 -78 74 -78 38 0 97
52 142 126 10 16 12 10 12 -35 1 -68 20 -91 75 -91 97 0 171 100 248 333 16
49 29 93 29 98 0 18 -47 9 -68 -13z m-522 -53 c0 -28 -9 -45 -41 -80 -38 -41
-122 -86 -135 -72 -10 10 41 88 90 140 57 58 86 62 86 12z"/>
</g>
</svg>
